<?xml version="1.0" standalone="no"?><!DOCTYPE svg PUBLIC "-//W3C//DTD SVG 1.1//EN" "http://www.w3.org/Graphics/SVG/1.1/DTD/svg11.dtd"><svg height="608" node-id="1" sillyvg="true" template-height="608" template-width="965" version="1.1" viewBox="0 0 965 608" width="965" xmlns="http://www.w3.org/2000/svg" xmlns:xlink="http://www.w3.org/1999/xlink"><defs node-id="177"><clipPath id="clip-path" node-id="5"><path d="M 435.55 356.54 C 436.63 352.59 437.18 348.51 437.18 344.41 C 437.18 318.41 415.55 297.36 388.87 297.36 C 362.19 297.36 340.56 318.42 340.56 344.41 C 340.56 348.53 341.11 352.63 342.20 356.60 C 355.59 366.77 371.82 370.23 388.87 370.09 C 405.48 370.23 422.00 366.76 435.55 356.54 Z" fill="#000000" fill-rule="nonzero" node-id="180" stroke="none" target-height="72.870026" target-width="96.62326" target-x="340.55756" target-y="297.36"></path></clipPath></defs><g node-id="524"><g node-id="525"><path d="M 965.16 467.78 L 958.26 524.52 C 958.26 524.52 907.95 456.39 835.26 444.22 C 719.87 427.86 653.45 446.34 497.94 468.52 C 383.47 490.00 241.59 502.67 176.21 479.22 C 110.83 455.77 58.36 413.94 58.29 396.22 C 92.08 428.01 158.62 472.65 214.54 477.22 C 270.46 481.79 326.47 476.44 343.63 471.88 C 329.84 466.88 288.38 461.88 249.86 441.65 C 211.34 421.42 146.67 361.58 149.43 329.80 C 160.49 351.08 178.77 379.88 206.24 399.80 C 235.89 420.01 296.32 469.44 403.29 454.80 C 510.26 440.16 581.50 418.90 650.19 409.53 C 718.88 400.16 775.32 400.40 791.00 399.00 C 786.88 387.42 752.08 336.68 772.73 312.62 C 780.26 323.50 791.35 378.00 818.39 392.36 C 845.43 406.72 887.90 411.89 912.49 428.17 C 937.08 444.45 965.16 467.78 965.16 467.78 Z" fill="#a35638" fill-rule="nonzero" group-id="1,2" node-id="187" stroke="none" target-height="211.90002" target-width="906.87" target-x="58.29" target-y="312.62"></path><path d="M 222.43 488.21 C 222.43 488.21 191.95 516.87 168.43 525.16 C 145.90 535.16 99.68 528.97 99.43 524.89 C 111.29 524.49 147.23 523.32 163.66 515.72 C 180.09 508.12 207.66 485.13 207.66 485.13 Z" fill="#a35638" fill-rule="nonzero" group-id="1,2" node-id="189" stroke="none" target-height="50.02997" target-width="122.99999" target-x="99.43" target-y="485.13"></path><path d="M 681.70 306.92 C 681.70 306.92 696.63 336.92 710.63 344.59 C 724.63 352.26 744.90 352.00 749.75 345.36 C 754.60 338.72 746.31 316.28 728.87 309.86 C 711.43 303.44 681.70 306.92 681.70 306.92 Z" fill="#6fb98f" fill-rule="nonzero" group-id="1,2" node-id="191" stroke="none" target-height="48.820007" target-width="72.89996" target-x="681.7" target-y="303.44"></path><path d="M 83.66 388.65 C 83.66 388.65 111.88 406.65 127.87 406.04 C 143.86 405.43 161.06 394.72 161.79 386.53 C 162.52 378.34 143.85 363.37 125.60 366.88 C 107.35 370.39 83.66 388.65 83.66 388.65 Z" fill="#6fb98f" fill-rule="nonzero" group-id="1,2" node-id="193" stroke="none" target-height="43.28" target-width="78.86" target-x="83.66" target-y="363.37"></path><path d="M 0.00 477.18 C 0.00 477.18 32.56 469.39 43.23 457.47 C 53.90 445.55 58.16 425.75 52.79 419.53 C 47.42 413.31 23.67 416.32 13.50 431.88 C 3.33 447.44 0.00 477.18 0.00 477.18 Z" fill="#6fb98f" fill-rule="nonzero" group-id="1,2" node-id="195" stroke="none" target-height="63.869995" target-width="58.16" target-x="0" target-y="413.31"></path><path d="M 77.74 512.65 C 77.74 512.65 96.18 484.71 95.82 468.72 C 95.46 452.73 85.00 435.35 76.85 434.50 C 68.70 433.65 53.42 452.06 56.62 470.37 C 59.82 488.68 77.74 512.65 77.74 512.65 Z" fill="#6fb98f" fill-rule="nonzero" group-id="1,2" node-id="197" stroke="none" target-height="79.00003" target-width="42.760002" target-x="53.42" target-y="433.65"></path><path d="M 211.25 607.69 C 211.25 607.69 216.35 574.60 209.36 560.21 C 202.37 545.82 185.63 534.39 177.85 537.00 C 170.07 539.61 163.85 562.73 174.42 578.00 C 184.99 593.27 211.25 607.69 211.25 607.69 Z" fill="#6fb98f" fill-rule="nonzero" group-id="1,2" node-id="199" stroke="none" target-height="73.29999" target-width="52.5" target-x="163.85" target-y="534.39"></path><path d="M 267.68 334.91 C 267.68 334.91 234.25 336.53 221.54 346.27 C 208.83 356.01 201.00 374.69 205.13 381.79 C 209.26 388.89 233.13 390.33 246.03 376.92 C 258.93 363.51 267.68 334.91 267.68 334.91 Z" fill="#6fb98f" fill-rule="nonzero" group-id="1,2" node-id="201" stroke="none" target-height="55.419983" target-width="66.67999" target-x="201" target-y="334.91"></path><path d="M 858.31 298.44 C 858.31 298.44 826.22 307.93 816.18 320.39 C 806.14 332.85 802.94 352.86 808.63 358.78 C 814.32 364.70 837.88 360.45 847.21 344.39 C 856.54 328.33 858.31 298.44 858.31 298.44 Z" fill="#6fb98f" fill-rule="nonzero" group-id="1,2" node-id="203" stroke="none" target-height="66.26001" target-width="55.369995" target-x="802.94" target-y="298.44"></path><path d="M 956.70 497.31 C 936.20 495.71 915.60 497.98 894.98 496.19 C 874.36 494.40 853.91 489.83 833.98 483.87 C 834.04 483.69 834.04 483.49 833.98 483.31 C 827.98 470.08 817.28 454.52 804.70 446.83 C 804.02 446.41 803.16 447.83 803.58 448.37 C 808.04 454.18 813.72 459.07 818.46 464.68 C 823.15 470.46 827.39 476.58 831.15 483.00 L 828.89 482.32 C 806.89 475.43 786.12 465.58 765.76 454.96 C 753.16 448.38 741.39 440.41 729.50 432.66 C 727.58 425.75 724.31 419.29 719.88 413.66 C 719.97 413.60 720.06 413.59 720.15 413.49 C 728.40 404.49 736.09 390.44 736.15 377.99 C 736.15 376.62 734.54 377.61 734.30 378.36 C 732.67 383.53 731.54 388.80 729.57 393.88 C 726.96 400.59 722.77 406.37 719.04 412.45 C 719.04 412.45 719.04 412.51 719.04 412.54 C 713.92 406.14 707.64 400.82 701.38 398.41 C 700.54 398.08 699.30 399.63 699.98 400.32 C 705.34 405.79 711.61 410.07 716.62 415.99 C 720.21 420.23 722.62 425.12 725.22 429.85 C 717.08 424.50 708.65 419.60 699.96 415.19 C 698.62 414.52 697.07 417.19 698.22 418.08 C 719.38 435.11 742.06 450.18 765.96 463.08 C 763.18 471.20 759.61 479.02 755.30 486.44 C 742.20 478.89 724.00 473.00 709.08 475.27 C 708.54 475.35 707.85 476.65 708.63 476.80 C 715.77 478.19 723.14 478.13 730.34 479.50 C 738.75 481.10 746.79 484.19 754.72 487.38 C 748.60 497.53 740.25 506.15 730.29 512.58 C 728.76 513.58 728.95 516.86 731.13 515.45 C 748.85 503.93 763.75 485.22 767.83 464.07 C 784.75 473.06 802.38 480.65 820.54 486.76 C 831.54 490.44 843.36 493.94 855.54 496.89 C 851.82 505.68 847.95 514.11 842.46 522.01 C 826.18 515.29 804.29 515.67 789.46 525.85 C 788.98 526.17 788.46 528.06 789.51 527.71 C 797.66 525.15 805.18 522.13 813.77 521.17 C 823.13 520.17 832.17 521.61 841.18 523.98 L 841.18 523.98 C 834.87 532.51 826.18 538.39 818.80 545.86 C 817.95 546.73 817.80 549.34 819.60 548.54 C 837.88 540.54 854.29 517.54 857.85 497.42 C 890.29 505.07 925.31 508.60 955.85 500.33 C 956.74 500.09 958.33 497.44 956.70 497.31 Z" fill="#6fb98f" fill-rule="nonzero" group-id="1,2" node-id="205" stroke="none" target-height="172.72003" target-width="261.26" target-x="697.07" target-y="376.62"></path><path d="M 902.94 438.66 C 900.80 444.61 899.43 450.39 896.19 455.94 C 893.19 461.04 888.82 464.85 884.66 468.89 C 878.66 446.38 865.59 423.75 849.48 407.58 C 847.89 408.43 846.22 409.10 844.48 409.58 C 852.87 419.17 861.07 428.58 867.91 439.85 C 843.62 438.85 824.42 434.26 805.03 417.23 C 803.93 416.23 802.03 419.23 803.22 420.23 C 820.15 435.80 845.66 447.51 869.01 441.78 C 878.70 458.50 882.33 475.93 887.11 494.40 C 887.32 495.22 888.27 494.12 888.27 493.65 C 888.10 485.99 887.05 478.37 885.13 470.95 C 895.73 465.42 905.70 450.07 905.29 438.20 C 905.28 436.39 903.28 437.71 902.94 438.66 Z" fill="#6fb98f" fill-rule="nonzero" group-id="1,2" node-id="207" stroke="none" target-height="87.640015" target-width="103.66998" target-x="802.03" target-y="407.58"></path><path d="M 809.44 425.40 C 809.44 425.40 784.08 426.88 775.93 404.40 C 772.89 395.66 771.61 386.41 772.16 377.18 C 772.16 377.18 816.18 388.25 809.44 425.40 Z" fill="#6fb98f" fill-rule="nonzero" group-id="1,2" node-id="209" stroke="none" target-height="49.700012" target-width="44.568054" target-x="771.61194" target-y="377.18"></path><path d="M 834.09 535.44 C 834.09 535.44 809.72 528.25 796.68 548.32 C 791.74 556.15 788.40 564.88 786.85 574.00 C 786.85 574.00 835.68 580.23 834.09 535.44 Z" fill="#6fb98f" fill-rule="nonzero" group-id="1,2" node-id="211" stroke="none" target-height="51.97998" target-width="48.830017" target-x="786.85" target-y="528.25"></path><path d="M 738.88 508.60 C 738.88 508.60 725.88 495.60 710.67 503.77 C 704.82 507.02 699.67 511.40 695.51 516.64 C 695.51 516.64 724.33 537.57 738.88 508.60 Z" fill="#6fb98f" fill-rule="nonzero" group-id="1,2" node-id="213" stroke="none" target-height="41.97" target-width="43.369995" target-x="695.51" target-y="495.6"></path><path d="M 855.68 416.69 C 855.68 416.69 852.33 398.62 835.11 396.78 C 828.44 396.16 821.72 396.86 815.33 398.85 C 815.33 398.85 827.31 432.39 855.68 416.69 Z" fill="#6fb98f" fill-rule="nonzero" group-id="1,2" node-id="215" stroke="none" target-height="36.231567" target-width="40.349976" target-x="815.33" target-y="396.15845"></path><path d="M 739.12 508.13 C 739.12 508.13 717.80 514.61 717.93 535.60 C 718.09 543.71 719.84 551.71 723.10 559.14 C 723.10 559.14 761.89 540.17 739.12 508.13 Z" fill="#6fb98f" fill-rule="nonzero" group-id="1,2" node-id="217" stroke="none" target-height="51.01001" target-width="44.090027" target-x="717.8" target-y="508.13"></path><path d="M 855.05 414.15 C 855.05 414.15 833.14 401.29 838.86 378.06 C 841.20 369.11 845.27 360.71 850.86 353.34 C 850.86 353.34 881.29 387.00 855.05 414.15 Z" fill="#6fb98f" fill-rule="nonzero" group-id="1,2" node-id="219" stroke="none" target-height="60.809998" target-width="48.149963" target-x="833.14" target-y="353.34"></path><path d="M 902.09 448.74 C 902.09 448.74 883.66 434.63 894.09 415.28 C 898.39 407.67 904.09 400.95 910.89 395.47 C 910.89 395.47 933.15 428.77 902.09 448.74 Z" fill="#6fb98f" fill-rule="nonzero" group-id="1,2" node-id="221" stroke="none" target-height="53.26999" target-width="49.49005" target-x="883.66" target-y="395.47"></path><path d="M 821.32 465.83 C 821.32 465.83 801.25 471.38 793.05 453.44 C 789.94 446.24 788.23 438.52 788.00 430.69 C 788.00 430.69 829.00 431.32 821.32 465.83 Z" fill="#6fb98f" fill-rule="nonzero" group-id="1,2" node-id="223" stroke="none" target-height="40.690002" target-width="41" target-x="788" target-y="430.69"></path><path d="M 711.82 406.67 C 711.82 406.67 691.74 412.22 683.54 394.27 C 680.43 387.08 678.71 379.36 678.47 371.53 C 678.47 371.53 719.48 372.15 711.82 406.67 Z" fill="#6fb98f" fill-rule="nonzero" group-id="1,2" node-id="225" stroke="none" target-height="40.690002" target-width="41.01001" target-x="678.47" target-y="371.53"></path><path d="M 731.00 398.70 C 731.00 398.70 718.39 387.37 727.09 373.87 C 730.66 368.58 735.20 364.01 740.47 360.41 C 740.47 360.41 758.06 388.81 731.00 398.70 Z" fill="#6fb98f" fill-rule="nonzero" group-id="1,2" node-id="227" stroke="none" target-height="38.29001" target-width="39.669983" target-x="718.39" target-y="360.41"></path><path d="M 807.31 522.05 C 807.31 522.05 797.13 540.21 778.60 533.42 C 771.30 530.56 764.61 526.35 758.87 521.00 C 758.87 521.00 788.18 492.32 807.31 522.05 Z" fill="#6fb98f" fill-rule="nonzero" group-id="1,2" node-id="229" stroke="none" target-height="47.890015" target-width="48.440002" target-x="758.87" target-y="492.32"></path><path d="M 732.80 479.00 C 732.80 479.00 722.61 497.17 704.10 490.37 C 696.80 487.53 690.10 483.34 684.37 478.00 C 684.37 478.00 713.67 449.29 732.80 479.00 Z" fill="#6fb98f" fill-rule="nonzero" group-id="1,2" node-id="231" stroke="none" target-height="47.880005" target-width="48.429993" target-x="684.37" target-y="449.29"></path><path d="M 715.51 425.88 C 715.51 425.88 697.42 444.12 677.64 429.94 C 665.48 421.22 658.26 408.69 658.26 408.69 C 658.26 408.69 702.56 384.23 715.51 425.88 Z" fill="#6fb98f" fill-rule="nonzero" group-id="1,2" node-id="233" stroke="none" target-height="59.889984" target-width="57.25" target-x="658.26" target-y="384.23"></path><path d="M 378.71 382.35 L 373.85 377.84 L 373.85 365.42 C 373.85 363.75 372.50 362.40 370.82 362.40 C 369.15 362.40 367.80 363.75 367.80 365.42 L 367.80 377.42 C 367.51 377.58 367.25 377.79 367.04 378.05 L 362.70 383.22 C 361.98 383.98 361.74 385.09 362.08 386.08 C 362.42 387.07 363.28 387.80 364.32 387.96 C 365.36 388.12 366.40 387.69 367.03 386.85 L 368.29 385.35 L 368.29 386.61 C 368.29 388.17 369.55 389.43 371.11 389.43 C 372.67 389.43 373.93 388.17 373.93 386.61 L 373.93 385.61 L 374.87 386.48 C 376.01 387.54 377.80 387.47 378.86 386.33 C 379.92 385.19 379.85 383.40 378.71 382.34 Z" fill="#f59a00" fill-rule="nonzero" group-id="1,2" node-id="235" stroke="none" target-height="27.035004" target-width="18.179565" target-x="361.7408" target-y="362.395"></path><path d="M 414.79 382.35 L 409.93 377.84 L 409.93 365.42 C 409.93 363.75 408.58 362.40 406.90 362.40 C 405.23 362.40 403.88 363.75 403.88 365.42 L 403.88 377.42 C 403.59 377.58 403.33 377.79 403.12 378.05 L 398.78 383.22 C 398.06 383.98 397.82 385.09 398.16 386.08 C 398.50 387.07 399.36 387.80 400.40 387.96 C 401.44 388.12 402.48 387.69 403.11 386.85 L 404.37 385.35 L 404.37 386.61 C 404.37 388.17 405.63 389.43 407.19 389.43 C 408.75 389.43 410.01 388.17 410.01 386.61 L 410.01 385.61 L 410.95 386.48 C 412.09 387.54 413.88 387.47 414.94 386.33 C 416.00 385.19 415.93 383.40 414.79 382.34 Z" fill="#f59a00" fill-rule="nonzero" group-id="1,2" node-id="237" stroke="none" target-height="27.035004" target-width="18.179596" target-x="397.8208" target-y="362.395"></path><path d="M 458.30 199.62 C 454.48 198.11 438.30 215.75 438.30 215.75 C 418.96 208.75 402.40 206.58 388.90 206.75 C 375.40 206.58 358.84 208.75 339.49 215.75 C 339.49 215.75 323.28 198.11 319.49 199.62 C 315.70 201.13 296.28 304.43 332.49 347.03 C 347.30 364.44 367.49 369.93 388.89 369.76 C 409.74 369.93 430.48 364.44 445.29 347.03 C 481.50 304.43 462.11 201.12 458.30 199.62 Z" fill="#009e8f" fill-rule="nonzero" group-id="1,2" node-id="239" stroke="none" target-height="171.81999" target-width="185.22" target-x="296.28" target-y="198.11"></path><g node-id="526"><path d="M 424.00 223.00 C 407.28 223.01 392.74 234.47 388.84 250.73 C 384.57 232.90 367.63 221.08 349.42 223.23 C 331.21 225.38 317.49 240.82 317.49 259.15 C 317.49 277.49 331.21 292.93 349.42 295.08 C 367.63 297.23 384.57 285.41 388.84 267.58 C 393.23 285.94 411.01 297.82 429.65 294.88 C 448.29 291.93 461.53 275.14 460.05 256.33 C 458.58 237.51 442.87 223.00 424.00 223.00 Z" fill="#a5d7d3" fill-opacity="0.8" fill-rule="nonzero" group-id="1,2,3" node-id="243" stroke="none" target-height="76.738434" target-width="144.03903" target-x="317.4949" target-y="221.08435"></path></g><path d="M 399.48 258.26 C 399.48 272.83 411.29 284.64 425.86 284.64 C 440.43 284.64 452.24 272.83 452.24 258.26 C 452.24 243.69 440.43 231.88 425.86 231.88 C 411.29 231.89 399.49 243.69 399.48 258.26 Z" fill="#ffffff" fill-rule="nonzero" group-id="1,2" node-id="246" stroke="none" target-height="52.76001" target-width="52.75998" target-x="399.48" target-y="231.88"></path><path d="M 408.91 260.32 C 408.91 267.96 413.51 274.85 420.57 277.77 C 427.63 280.70 435.76 279.08 441.16 273.67 C 446.56 268.27 448.18 260.14 445.25 253.08 C 442.32 246.03 435.43 241.43 427.79 241.43 C 422.78 241.43 417.98 243.42 414.44 246.96 C 410.90 250.51 408.91 255.31 408.91 260.32 Z" fill="#383838" fill-rule="nonzero" group-id="1,2" node-id="248" stroke="none" target-height="39.27031" target-width="39.26883" target-x="408.90735" target-y="241.42595"></path><path d="M 424.00 252.54 C 424.00 255.17 426.14 257.31 428.77 257.31 C 431.40 257.31 433.54 255.17 433.54 252.54 C 433.54 249.91 431.40 247.77 428.77 247.77 C 426.14 247.78 424.01 249.91 424.00 252.54 Z" fill="#ffffff" fill-rule="nonzero" group-id="1,2" node-id="250" stroke="none" target-height="9.539993" target-width="9.540009" target-x="424" target-y="247.77"></path><path d="M 378.26 258.26 C 378.26 272.83 366.45 284.64 351.88 284.64 C 337.31 284.64 325.50 272.83 325.50 258.26 C 325.50 243.69 337.31 231.88 351.88 231.88 C 366.45 231.89 378.25 243.69 378.26 258.26 Z" fill="#ffffff" fill-rule="nonzero" group-id="1,2" node-id="252" stroke="none" target-height="52.76001" target-width="52.76001" target-x="325.5" target-y="231.88"></path><path d="M 370.51 260.32 C 370.51 267.96 365.91 274.85 358.85 277.77 C 351.79 280.70 343.66 279.08 338.26 273.67 C 332.86 268.27 331.24 260.14 334.17 253.08 C 337.10 246.03 343.99 241.43 351.63 241.43 C 356.64 241.43 361.44 243.42 364.98 246.96 C 368.52 250.51 370.51 255.31 370.51 260.32 Z" fill="#383838" fill-rule="nonzero" group-id="1,2" node-id="254" stroke="none" target-height="39.27031" target-width="39.26883" target-x="331.24384" target-y="241.42595"></path><path d="M 353.79 252.54 C 353.79 255.17 351.65 257.31 349.02 257.31 C 346.39 257.31 344.25 255.17 344.25 252.54 C 344.25 249.91 346.39 247.77 349.02 247.77 C 351.65 247.78 353.78 249.91 353.79 252.54 Z" fill="#ffffff" fill-rule="nonzero" group-id="1,2" node-id="256" stroke="none" target-height="9.539993" target-width="9.540009" target-x="344.25" target-y="247.77"></path><path d="M 379.40 269.64 L 388.87 282.72 L 388.87 260.65 L 379.40 269.64 Z" fill="#fab600" fill-rule="nonzero" group-id="1,2" node-id="258" stroke="none" target-height="22.070007" target-width="9.470001" target-x="379.4" target-y="260.65"></path><path d="M 388.87 260.65 L 388.87 282.72 L 398.34 269.64 L 388.87 260.65 Z" fill="#f59a00" fill-rule="nonzero" group-id="1,2" node-id="260" stroke="none" target-height="22.070007" target-width="9.470001" target-x="388.87" target-y="260.65"></path><path d="M 435.55 356.54 C 436.63 352.59 437.18 348.51 437.18 344.41 C 437.18 318.41 415.55 297.36 388.87 297.36 C 362.19 297.36 340.56 318.42 340.56 344.41 C 340.56 348.53 341.11 352.63 342.20 356.60 C 355.59 366.77 371.82 370.23 388.87 370.09 C 405.48 370.23 422.00 366.76 435.55 356.54 Z" fill="#e5dfdc" fill-rule="nonzero" group-id="1,2" node-id="262" stroke="none" target-height="72.870026" target-width="96.62326" target-x="340.55756" target-y="297.36"></path><path d="M 435.55 356.54 C 436.63 352.59 437.18 348.51 437.18 344.41 C 437.18 318.41 415.55 297.36 388.87 297.36 C 362.19 297.36 340.56 318.42 340.56 344.41 C 340.56 348.53 341.11 352.63 342.20 356.60 C 355.59 366.77 371.82 370.23 388.87 370.09 C 405.48 370.23 422.00 366.76 435.55 356.54 Z" fill="#a5d7d3" fill-opacity="0.8" fill-rule="nonzero" group-id="1,2,4" node-id="266" stroke="none" target-height="72.870026" target-width="96.62326" target-x="340.55756" target-y="297.36"></path><g clip-path="url(#clip-path)" group-id="1,2,5" node-id="269"><path d="M 369.26 316.64 L 360.89 316.64 L 365.17 320.92 L 369.26 316.64 Z" fill="#007e97" fill-rule="nonzero" group-id="1,2,5" node-id="271" stroke="none" target-height="4.279999" target-width="8.369995" target-x="360.89" target-y="316.64"></path><path d="M 378.60 316.64 L 370.24 316.64 L 374.51 320.92 L 378.60 316.64 Z" fill="#007e97" fill-rule="nonzero" group-id="1,2,5" node-id="273" stroke="none" target-height="4.279999" target-width="8.360016" target-x="370.24" target-y="316.64"></path><path d="M 387.94 316.64 L 379.58 316.64 L 383.85 320.92 L 387.94 316.64 Z" fill="#007e97" fill-rule="nonzero" group-id="1,2,5" node-id="275" stroke="none" target-height="4.279999" target-width="8.360016" target-x="379.58" target-y="316.64"></path><path d="M 397.28 316.64 L 388.92 316.64 L 393.20 320.92 L 397.28 316.64 Z" fill="#007e97" fill-rule="nonzero" group-id="1,2,5" node-id="277" stroke="none" target-height="4.279999" target-width="8.359985" target-x="388.92" target-y="316.64"></path><path d="M 406.63 316.64 L 398.27 316.64 L 402.54 320.92 L 406.63 316.64 Z" fill="#007e97" fill-rule="nonzero" group-id="1,2,5" node-id="279" stroke="none" target-height="4.279999" target-width="8.360016" target-x="398.27" target-y="316.64"></path><path d="M 415.97 316.64 L 407.61 316.64 L 411.88 320.92 L 415.97 316.64 Z" fill="#007e97" fill-rule="nonzero" group-id="1,2,5" node-id="281" stroke="none" target-height="4.279999" target-width="8.360016" target-x="407.61" target-y="316.64"></path><path d="M 425.31 316.64 L 416.95 316.64 L 421.22 320.92 L 425.31 316.64 Z" fill="#007e97" fill-rule="nonzero" group-id="1,2,5" node-id="283" stroke="none" target-height="4.279999" target-width="8.359985" target-x="416.95" target-y="316.64"></path><path d="M 359.92 316.64 L 351.56 316.64 L 355.82 320.92 L 359.92 316.64 Z" fill="#007e97" fill-rule="nonzero" group-id="1,2,5" node-id="285" stroke="none" target-height="4.279999" target-width="8.360016" target-x="351.56" target-y="316.64"></path><path d="M 373.93 311.05 L 365.57 311.05 L 369.84 315.33 L 373.93 311.05 Z" fill="#007e97" fill-rule="nonzero" group-id="1,2,5" node-id="287" stroke="none" target-height="4.279999" target-width="8.359985" target-x="365.57" target-y="311.05"></path><path d="M 383.27 311.05 L 374.91 311.05 L 379.18 315.33 L 383.27 311.05 Z" fill="#007e97" fill-rule="nonzero" group-id="1,2,5" node-id="289" stroke="none" target-height="4.279999" target-width="8.359985" target-x="374.91" target-y="311.05"></path><path d="M 392.61 311.05 L 384.25 311.05 L 388.53 315.33 L 392.61 311.05 Z" fill="#007e97" fill-rule="nonzero" group-id="1,2,5" node-id="291" stroke="none" target-height="4.279999" target-width="8.359985" target-x="384.25" target-y="311.05"></path><path d="M 401.96 311.05 L 393.60 311.05 L 397.87 315.33 L 401.96 311.05 Z" fill="#007e97" fill-rule="nonzero" group-id="1,2,5" node-id="293" stroke="none" target-height="4.279999" target-width="8.359985" target-x="393.6" target-y="311.05"></path><path d="M 411.30 311.05 L 402.94 311.05 L 407.21 315.33 L 411.30 311.05 Z" fill="#007e97" fill-rule="nonzero" group-id="1,2,5" node-id="295" stroke="none" target-height="4.279999" target-width="8.359985" target-x="402.94" target-y="311.05"></path><path d="M 420.64 311.05 L 412.28 311.05 L 416.55 315.33 L 420.64 311.05 Z" fill="#007e97" fill-rule="nonzero" group-id="1,2,5" node-id="297" stroke="none" target-height="4.279999" target-width="8.360016" target-x="412.28" target-y="311.05"></path><path d="M 364.59 311.05 L 356.23 311.05 L 360.50 315.33 L 364.59 311.05 Z" fill="#007e97" fill-rule="nonzero" group-id="1,2,5" node-id="299" stroke="none" target-height="4.279999" target-width="8.359985" target-x="356.23" target-y="311.05"></path><path d="M 439.33 311.05 L 430.96 311.05 L 435.24 315.33 L 439.33 311.05 Z" fill="#6c4f3d" fill-rule="nonzero" group-id="1,2,5" node-id="301" stroke="none" target-height="4.279999" target-width="8.369995" target-x="430.96" target-y="311.05"></path><path d="M 364.59 299.88 L 356.23 299.88 L 360.50 304.15 L 364.59 299.88 Z" fill="#6c4f3d" fill-rule="nonzero" group-id="1,2,5" node-id="303" stroke="none" target-height="4.269989" target-width="8.359985" target-x="356.23" target-y="299.88"></path><path d="M 373.93 299.88 L 365.57 299.88 L 369.84 304.15 L 373.93 299.88 Z" fill="#007e97" fill-rule="nonzero" group-id="1,2,5" node-id="305" stroke="none" target-height="4.269989" target-width="8.359985" target-x="365.57" target-y="299.88"></path><path d="M 383.27 299.88 L 374.91 299.88 L 379.18 304.15 L 383.27 299.88 Z" fill="#007e97" fill-rule="nonzero" group-id="1,2,5" node-id="307" stroke="none" target-height="4.269989" target-width="8.359985" target-x="374.91" target-y="299.88"></path><path d="M 392.61 299.88 L 384.25 299.88 L 388.52 304.15 L 392.61 299.88 Z" fill="#007e97" fill-rule="nonzero" group-id="1,2,5" node-id="309" stroke="none" target-height="4.269989" target-width="8.359985" target-x="384.25" target-y="299.88"></path><path d="M 401.96 299.88 L 393.60 299.88 L 397.87 304.15 L 401.96 299.88 Z" fill="#007e97" fill-rule="nonzero" group-id="1,2,5" node-id="311" stroke="none" target-height="4.269989" target-width="8.359985" target-x="393.6" target-y="299.88"></path><path d="M 411.30 299.88 L 402.94 299.88 L 407.21 304.15 L 411.30 299.88 Z" fill="#007e97" fill-rule="nonzero" group-id="1,2,5" node-id="313" stroke="none" target-height="4.269989" target-width="8.359985" target-x="402.94" target-y="299.88"></path><path d="M 420.64 299.88 L 412.28 299.88 L 416.55 304.15 L 420.64 299.88 Z" fill="#6c4f3d" fill-rule="nonzero" group-id="1,2,5" node-id="315" stroke="none" target-height="4.269989" target-width="8.360016" target-x="412.28" target-y="299.88"></path><path d="M 355.24 299.88 L 346.88 299.88 L 351.15 304.15 L 355.24 299.88 Z" fill="#6c4f3d" fill-rule="nonzero" group-id="1,2,5" node-id="317" stroke="none" target-height="4.269989" target-width="8.359985" target-x="346.88" target-y="299.88"></path><path d="M 439.33 299.88 L 430.96 299.88 L 435.24 304.15 L 439.33 299.88 Z" fill="#6c4f3d" fill-rule="nonzero" group-id="1,2,5" node-id="319" stroke="none" target-height="4.269989" target-width="8.369995" target-x="430.96" target-y="299.88"></path><path d="M 429.98 299.88 L 421.62 299.88 L 425.90 304.15 L 429.98 299.88 Z" fill="#6c4f3d" fill-rule="nonzero" group-id="1,2,5" node-id="321" stroke="none" target-height="4.269989" target-width="8.360016" target-x="421.62" target-y="299.88"></path><path d="M 369.26 305.47 L 360.89 305.47 L 365.17 309.74 L 369.26 305.47 Z" fill="#007e97" fill-rule="nonzero" group-id="1,2,5" node-id="323" stroke="none" target-height="4.269989" target-width="8.369995" target-x="360.89" target-y="305.47"></path><path d="M 378.60 305.47 L 370.24 305.47 L 374.51 309.74 L 378.60 305.47 Z" fill="#007e97" fill-rule="nonzero" group-id="1,2,5" node-id="325" stroke="none" target-height="4.269989" target-width="8.360016" target-x="370.24" target-y="305.47"></path><path d="M 387.94 305.47 L 379.58 305.47 L 383.85 309.74 L 387.94 305.47 Z" fill="#007e97" fill-rule="nonzero" group-id="1,2,5" node-id="327" stroke="none" target-height="4.269989" target-width="8.360016" target-x="379.58" target-y="305.47"></path><path d="M 397.28 305.47 L 388.92 305.47 L 393.20 309.74 L 397.28 305.47 Z" fill="#007e97" fill-rule="nonzero" group-id="1,2,5" node-id="329" stroke="none" target-height="4.269989" target-width="8.359985" target-x="388.92" target-y="305.47"></path><path d="M 406.63 305.47 L 398.27 305.47 L 402.54 309.74 L 406.63 305.47 Z" fill="#007e97" fill-rule="nonzero" group-id="1,2,5" node-id="331" stroke="none" target-height="4.269989" target-width="8.360016" target-x="398.27" target-y="305.47"></path><path d="M 415.97 305.47 L 407.61 305.47 L 411.88 309.74 L 415.97 305.47 Z" fill="#007e97" fill-rule="nonzero" group-id="1,2,5" node-id="333" stroke="none" target-height="4.269989" target-width="8.360016" target-x="407.61" target-y="305.47"></path><path d="M 359.92 305.47 L 351.56 305.47 L 355.82 309.74 L 359.92 305.47 Z" fill="#6c4f3d" fill-rule="nonzero" group-id="1,2,5" node-id="335" stroke="none" target-height="4.269989" target-width="8.360016" target-x="351.56" target-y="305.47"></path><path d="M 444.00 305.47 L 435.63 305.47 L 439.91 309.74 L 444.00 305.47 Z" fill="#6c4f3d" fill-rule="nonzero" group-id="1,2,5" node-id="337" stroke="none" target-height="4.269989" target-width="8.369995" target-x="435.63" target-y="305.47"></path><path d="M 434.65 305.47 L 426.29 305.47 L 430.57 309.74 L 434.65 305.47 Z" fill="#6c4f3d" fill-rule="nonzero" group-id="1,2,5" node-id="339" stroke="none" target-height="4.269989" target-width="8.359985" target-x="426.29" target-y="305.47"></path><path d="M 368.77 339.00 L 360.40 339.00 L 364.68 343.27 L 368.77 339.00 Z" fill="#007e97" fill-rule="nonzero" group-id="1,2,5" node-id="341" stroke="none" target-height="4.269989" target-width="8.369995" target-x="360.4" target-y="339"></path><path d="M 378.11 339.00 L 369.75 339.00 L 374.02 343.27 L 378.11 339.00 Z" fill="#007e97" fill-rule="nonzero" group-id="1,2,5" node-id="343" stroke="none" target-height="4.269989" target-width="8.359985" target-x="369.75" target-y="339"></path><path d="M 387.45 339.00 L 379.09 339.00 L 383.36 343.27 L 387.45 339.00 Z" fill="#007e97" fill-rule="nonzero" group-id="1,2,5" node-id="345" stroke="none" target-height="4.269989" target-width="8.360016" target-x="379.09" target-y="339"></path><path d="M 396.79 339.00 L 388.43 339.00 L 392.70 343.27 L 396.79 339.00 Z" fill="#007e97" fill-rule="nonzero" group-id="1,2,5" node-id="347" stroke="none" target-height="4.269989" target-width="8.360016" target-x="388.43" target-y="339"></path><path d="M 406.13 339.00 L 397.77 339.00 L 402.05 343.27 L 406.13 339.00 Z" fill="#007e97" fill-rule="nonzero" group-id="1,2,5" node-id="349" stroke="none" target-height="4.269989" target-width="8.360016" target-x="397.77" target-y="339"></path><path d="M 415.48 339.00 L 407.12 339.00 L 411.39 343.27 L 415.48 339.00 Z" fill="#007e97" fill-rule="nonzero" group-id="1,2,5" node-id="351" stroke="none" target-height="4.269989" target-width="8.360016" target-x="407.12" target-y="339"></path><path d="M 424.82 339.00 L 416.46 339.00 L 420.73 343.27 L 424.82 339.00 Z" fill="#007e97" fill-rule="nonzero" group-id="1,2,5" node-id="353" stroke="none" target-height="4.269989" target-width="8.360016" target-x="416.46" target-y="339"></path><path d="M 359.42 339.00 L 351.06 339.00 L 355.33 343.27 L 359.42 339.00 Z" fill="#007e97" fill-rule="nonzero" group-id="1,2,5" node-id="355" stroke="none" target-height="4.269989" target-width="8.360016" target-x="351.06" target-y="339"></path><path d="M 350.08 339.00 L 341.72 339.00 L 345.99 343.27 L 350.08 339.00 Z" fill="#007e97" fill-rule="nonzero" group-id="1,2,5" node-id="357" stroke="none" target-height="4.269989" target-width="8.359985" target-x="341.72" target-y="339"></path><path d="M 443.50 339.00 L 435.15 339.00 L 439.42 343.27 L 443.50 339.00 Z" fill="#6c4f3d" fill-rule="nonzero" group-id="1,2,5" node-id="359" stroke="none" target-height="4.269989" target-width="8.350006" target-x="435.15" target-y="339"></path><path d="M 434.16 339.00 L 425.80 339.00 L 430.07 343.27 L 434.16 339.00 Z" fill="#007e97" fill-rule="nonzero" group-id="1,2,5" node-id="361" stroke="none" target-height="4.269989" target-width="8.360016" target-x="425.8" target-y="339"></path><path d="M 345.90 333.41 L 337.54 333.41 L 341.81 337.68 L 345.90 333.41 Z" fill="#007e97" fill-rule="nonzero" group-id="1,2,5" node-id="363" stroke="none" target-height="4.269989" target-width="8.359985" target-x="337.54" target-y="333.41"></path><path d="M 373.44 333.41 L 365.08 333.41 L 369.35 337.68 L 373.44 333.41 Z" fill="#007e97" fill-rule="nonzero" group-id="1,2,5" node-id="365" stroke="none" target-height="4.269989" target-width="8.360016" target-x="365.08" target-y="333.41"></path><path d="M 382.78 333.41 L 374.42 333.41 L 378.69 337.68 L 382.78 333.41 Z" fill="#007e97" fill-rule="nonzero" group-id="1,2,5" node-id="367" stroke="none" target-height="4.269989" target-width="8.359985" target-x="374.42" target-y="333.41"></path><path d="M 392.12 333.41 L 383.76 333.41 L 388.03 337.68 L 392.12 333.41 Z" fill="#007e97" fill-rule="nonzero" group-id="1,2,5" node-id="369" stroke="none" target-height="4.269989" target-width="8.359985" target-x="383.76" target-y="333.41"></path><path d="M 401.46 333.41 L 393.10 333.41 L 397.38 337.68 L 401.46 333.41 Z" fill="#007e97" fill-rule="nonzero" group-id="1,2,5" node-id="371" stroke="none" target-height="4.269989" target-width="8.359985" target-x="393.1" target-y="333.41"></path><path d="M 410.81 333.41 L 402.44 333.41 L 406.72 337.68 L 410.81 333.41 Z" fill="#007e97" fill-rule="nonzero" group-id="1,2,5" node-id="373" stroke="none" target-height="4.269989" target-width="8.369995" target-x="402.44" target-y="333.41"></path><path d="M 420.15 333.41 L 411.79 333.41 L 416.06 337.68 L 420.15 333.41 Z" fill="#007e97" fill-rule="nonzero" group-id="1,2,5" node-id="375" stroke="none" target-height="4.269989" target-width="8.359985" target-x="411.79" target-y="333.41"></path><path d="M 429.49 333.41 L 421.13 333.41 L 425.40 337.68 L 429.49 333.41 Z" fill="#007e97" fill-rule="nonzero" group-id="1,2,5" node-id="377" stroke="none" target-height="4.269989" target-width="8.359985" target-x="421.13" target-y="333.41"></path><path d="M 364.10 333.41 L 355.73 333.41 L 360.01 337.68 L 364.10 333.41 Z" fill="#007e97" fill-rule="nonzero" group-id="1,2,5" node-id="379" stroke="none" target-height="4.269989" target-width="8.369995" target-x="355.73" target-y="333.41"></path><path d="M 354.75 333.41 L 346.39 333.41 L 350.66 337.68 L 354.75 333.41 Z" fill="#007e97" fill-rule="nonzero" group-id="1,2,5" node-id="381" stroke="none" target-height="4.269989" target-width="8.359985" target-x="346.39" target-y="333.41"></path><path d="M 438.83 333.41 L 430.47 333.41 L 434.74 337.68 L 438.83 333.41 Z" fill="#007e97" fill-rule="nonzero" group-id="1,2,5" node-id="383" stroke="none" target-height="4.269989" target-width="8.359985" target-x="430.47" target-y="333.41"></path><path d="M 345.41 322.23 L 337.05 322.23 L 341.32 326.50 L 345.41 322.23 Z" fill="#6c4f3d" fill-rule="nonzero" group-id="1,2,5" node-id="385" stroke="none" target-height="4.269989" target-width="8.360016" target-x="337.05" target-y="322.23"></path><path d="M 364.10 322.23 L 355.73 322.23 L 360.01 326.50 L 364.10 322.23 Z" fill="#007e97" fill-rule="nonzero" group-id="1,2,5" node-id="387" stroke="none" target-height="4.269989" target-width="8.369995" target-x="355.73" target-y="322.23"></path><path d="M 373.44 322.23 L 365.08 322.23 L 369.35 326.50 L 373.44 322.23 Z" fill="#007e97" fill-rule="nonzero" group-id="1,2,5" node-id="389" stroke="none" target-height="4.269989" target-width="8.360016" target-x="365.08" target-y="322.23"></path><path d="M 382.78 322.23 L 374.42 322.23 L 378.69 326.50 L 382.78 322.23 Z" fill="#007e97" fill-rule="nonzero" group-id="1,2,5" node-id="391" stroke="none" target-height="4.269989" target-width="8.359985" target-x="374.42" target-y="322.23"></path><path d="M 392.12 322.23 L 383.76 322.23 L 388.03 326.50 L 392.12 322.23 Z" fill="#007e97" fill-rule="nonzero" group-id="1,2,5" node-id="393" stroke="none" target-height="4.269989" target-width="8.359985" target-x="383.76" target-y="322.23"></path><path d="M 401.46 322.23 L 393.10 322.23 L 397.38 326.50 L 401.46 322.23 Z" fill="#007e97" fill-rule="nonzero" group-id="1,2,5" node-id="395" stroke="none" target-height="4.269989" target-width="8.359985" target-x="393.1" target-y="322.23"></path><path d="M 410.81 322.23 L 402.45 322.23 L 406.72 326.50 L 410.81 322.23 Z" fill="#007e97" fill-rule="nonzero" group-id="1,2,5" node-id="397" stroke="none" target-height="4.269989" target-width="8.359985" target-x="402.45" target-y="322.23"></path><path d="M 420.15 322.23 L 411.79 322.23 L 416.06 326.50 L 420.15 322.23 Z" fill="#007e97" fill-rule="nonzero" group-id="1,2,5" node-id="399" stroke="none" target-height="4.269989" target-width="8.359985" target-x="411.79" target-y="322.23"></path><path d="M 354.75 322.23 L 346.39 322.23 L 350.66 326.50 L 354.75 322.23 Z" fill="#007e97" fill-rule="nonzero" group-id="1,2,5" node-id="401" stroke="none" target-height="4.269989" target-width="8.359985" target-x="346.39" target-y="322.23"></path><path d="M 429.49 322.23 L 421.13 322.23 L 425.40 326.50 L 429.49 322.23 Z" fill="#007e97" fill-rule="nonzero" group-id="1,2,5" node-id="403" stroke="none" target-height="4.269989" target-width="8.359985" target-x="421.13" target-y="322.23"></path><path d="M 368.77 327.82 L 360.40 327.82 L 364.68 332.09 L 368.77 327.82 Z" fill="#007e97" fill-rule="nonzero" group-id="1,2,5" node-id="405" stroke="none" target-height="4.269989" target-width="8.369995" target-x="360.4" target-y="327.82"></path><path d="M 378.11 327.82 L 369.75 327.82 L 374.02 332.09 L 378.11 327.82 Z" fill="#007e97" fill-rule="nonzero" group-id="1,2,5" node-id="407" stroke="none" target-height="4.269989" target-width="8.359985" target-x="369.75" target-y="327.82"></path><path d="M 387.45 327.82 L 379.09 327.82 L 383.36 332.09 L 387.45 327.82 Z" fill="#007e97" fill-rule="nonzero" group-id="1,2,5" node-id="409" stroke="none" target-height="4.269989" target-width="8.360016" target-x="379.09" target-y="327.82"></path><path d="M 396.79 327.82 L 388.43 327.82 L 392.70 332.09 L 396.79 327.82 Z" fill="#007e97" fill-rule="nonzero" group-id="1,2,5" node-id="411" stroke="none" target-height="4.269989" target-width="8.360016" target-x="388.43" target-y="327.82"></path><path d="M 406.13 327.82 L 397.77 327.82 L 402.05 332.09 L 406.13 327.82 Z" fill="#007e97" fill-rule="nonzero" group-id="1,2,5" node-id="413" stroke="none" target-height="4.269989" target-width="8.360016" target-x="397.77" target-y="327.82"></path><path d="M 415.48 327.82 L 407.12 327.82 L 411.39 332.09 L 415.48 327.82 Z" fill="#007e97" fill-rule="nonzero" group-id="1,2,5" node-id="415" stroke="none" target-height="4.269989" target-width="8.360016" target-x="407.12" target-y="327.82"></path><path d="M 424.82 327.82 L 416.46 327.82 L 420.73 332.09 L 424.82 327.82 Z" fill="#007e97" fill-rule="nonzero" group-id="1,2,5" node-id="417" stroke="none" target-height="4.269989" target-width="8.360016" target-x="416.46" target-y="327.82"></path><path d="M 359.42 327.82 L 351.06 327.82 L 355.33 332.09 L 359.42 327.82 Z" fill="#007e97" fill-rule="nonzero" group-id="1,2,5" node-id="419" stroke="none" target-height="4.269989" target-width="8.360016" target-x="351.06" target-y="327.82"></path><path d="M 350.08 327.82 L 341.72 327.82 L 345.99 332.09 L 350.08 327.82 Z" fill="#007e97" fill-rule="nonzero" group-id="1,2,5" node-id="421" stroke="none" target-height="4.269989" target-width="8.359985" target-x="341.72" target-y="327.82"></path><path d="M 443.50 327.82 L 435.15 327.82 L 439.42 332.09 L 443.50 327.82 Z" fill="#6c4f3d" fill-rule="nonzero" group-id="1,2,5" node-id="423" stroke="none" target-height="4.269989" target-width="8.350006" target-x="435.15" target-y="327.82"></path><path d="M 434.16 327.82 L 425.80 327.82 L 430.07 332.09 L 434.16 327.82 Z" fill="#007e97" fill-rule="nonzero" group-id="1,2,5" node-id="425" stroke="none" target-height="4.269989" target-width="8.360016" target-x="425.8" target-y="327.82"></path><path d="M 359.43 361.35 L 351.06 361.35 L 355.34 365.62 L 359.43 361.35 Z" fill="#007e97" fill-rule="nonzero" group-id="1,2,5" node-id="427" stroke="none" target-height="4.269989" target-width="8.369995" target-x="351.06" target-y="361.35"></path><path d="M 368.77 361.35 L 360.40 361.35 L 364.68 365.62 L 368.77 361.35 Z" fill="#007e97" fill-rule="nonzero" group-id="1,2,5" node-id="429" stroke="none" target-height="4.269989" target-width="8.369995" target-x="360.4" target-y="361.35"></path><path d="M 378.11 361.35 L 369.75 361.35 L 374.02 365.62 L 378.11 361.35 Z" fill="#007e97" fill-rule="nonzero" group-id="1,2,5" node-id="431" stroke="none" target-height="4.269989" target-width="8.359985" target-x="369.75" target-y="361.35"></path><path d="M 387.45 361.35 L 379.09 361.35 L 383.36 365.62 L 387.45 361.35 Z" fill="#007e97" fill-rule="nonzero" group-id="1,2,5" node-id="433" stroke="none" target-height="4.269989" target-width="8.360016" target-x="379.09" target-y="361.35"></path><path d="M 396.79 361.35 L 388.43 361.35 L 392.70 365.62 L 396.79 361.35 Z" fill="#007e97" fill-rule="nonzero" group-id="1,2,5" node-id="435" stroke="none" target-height="4.269989" target-width="8.360016" target-x="388.43" target-y="361.35"></path><path d="M 406.14 361.35 L 397.77 361.35 L 402.05 365.62 L 406.14 361.35 Z" fill="#007e97" fill-rule="nonzero" group-id="1,2,5" node-id="437" stroke="none" target-height="4.269989" target-width="8.370026" target-x="397.77" target-y="361.35"></path><path d="M 415.48 361.35 L 407.12 361.35 L 411.39 365.62 L 415.48 361.35 Z" fill="#007e97" fill-rule="nonzero" group-id="1,2,5" node-id="439" stroke="none" target-height="4.269989" target-width="8.360016" target-x="407.12" target-y="361.35"></path><path d="M 424.82 361.35 L 416.46 361.35 L 420.73 365.62 L 424.82 361.35 Z" fill="#007e97" fill-rule="nonzero" group-id="1,2,5" node-id="441" stroke="none" target-height="4.269989" target-width="8.360016" target-x="416.46" target-y="361.35"></path><path d="M 438.34 355.76 L 429.98 355.76 L 434.25 360.03 L 438.34 355.76 Z" fill="#007e97" fill-rule="nonzero" group-id="1,2,5" node-id="443" stroke="none" target-height="4.269989" target-width="8.359985" target-x="429.98" target-y="355.76"></path><path d="M 364.10 355.76 L 355.74 355.76 L 360.01 360.03 L 364.10 355.76 Z" fill="#007e97" fill-rule="nonzero" group-id="1,2,5" node-id="445" stroke="none" target-height="4.269989" target-width="8.360016" target-x="355.74" target-y="355.76"></path><path d="M 373.44 355.76 L 365.08 355.76 L 369.35 360.03 L 373.44 355.76 Z" fill="#007e97" fill-rule="nonzero" group-id="1,2,5" node-id="447" stroke="none" target-height="4.269989" target-width="8.360016" target-x="365.08" target-y="355.76"></path><path d="M 382.78 355.76 L 374.42 355.76 L 378.69 360.03 L 382.78 355.76 Z" fill="#007e97" fill-rule="nonzero" group-id="1,2,5" node-id="449" stroke="none" target-height="4.269989" target-width="8.359985" target-x="374.42" target-y="355.76"></path><path d="M 392.12 355.76 L 383.76 355.76 L 388.03 360.03 L 392.12 355.76 Z" fill="#007e97" fill-rule="nonzero" group-id="1,2,5" node-id="451" stroke="none" target-height="4.269989" target-width="8.359985" target-x="383.76" target-y="355.76"></path><path d="M 401.46 355.76 L 393.10 355.76 L 397.38 360.03 L 401.46 355.76 Z" fill="#007e97" fill-rule="nonzero" group-id="1,2,5" node-id="453" stroke="none" target-height="4.269989" target-width="8.359985" target-x="393.1" target-y="355.76"></path><path d="M 410.81 355.76 L 402.45 355.76 L 406.72 360.03 L 410.81 355.76 Z" fill="#007e97" fill-rule="nonzero" group-id="1,2,5" node-id="455" stroke="none" target-height="4.269989" target-width="8.359985" target-x="402.45" target-y="355.76"></path><path d="M 420.15 355.76 L 411.79 355.76 L 416.06 360.03 L 420.15 355.76 Z" fill="#007e97" fill-rule="nonzero" group-id="1,2,5" node-id="457" stroke="none" target-height="4.269989" target-width="8.359985" target-x="411.79" target-y="355.76"></path><path d="M 354.75 355.76 L 346.39 355.76 L 350.66 360.03 L 354.75 355.76 Z" fill="#007e97" fill-rule="nonzero" group-id="1,2,5" node-id="459" stroke="none" target-height="4.269989" target-width="8.359985" target-x="346.39" target-y="355.76"></path><path d="M 345.41 355.76 L 337.05 355.76 L 341.32 360.03 L 345.41 355.76 Z" fill="#007e97" fill-rule="nonzero" group-id="1,2,5" node-id="461" stroke="none" target-height="4.269989" target-width="8.360016" target-x="337.05" target-y="355.76"></path><path d="M 429.50 355.76 L 421.13 355.76 L 425.40 360.03 L 429.50 355.76 Z" fill="#007e97" fill-rule="nonzero" group-id="1,2,5" node-id="463" stroke="none" target-height="4.269989" target-width="8.369995" target-x="421.13" target-y="355.76"></path><path d="M 438.62 344.58 L 430.26 344.58 L 434.53 348.86 L 438.62 344.58 Z" fill="#007e97" fill-rule="nonzero" group-id="1,2,5" node-id="465" stroke="none" target-height="4.279999" target-width="8.359985" target-x="430.26" target-y="344.58"></path><path d="M 354.75 344.58 L 346.39 344.58 L 350.67 348.86 L 354.75 344.58 Z" fill="#007e97" fill-rule="nonzero" group-id="1,2,5" node-id="467" stroke="none" target-height="4.279999" target-width="8.359985" target-x="346.39" target-y="344.58"></path><path d="M 364.10 344.58 L 355.74 344.58 L 360.01 348.86 L 364.10 344.58 Z" fill="#007e97" fill-rule="nonzero" group-id="1,2,5" node-id="469" stroke="none" target-height="4.279999" target-width="8.360016" target-x="355.74" target-y="344.58"></path><path d="M 373.44 344.58 L 365.08 344.58 L 369.35 348.86 L 373.44 344.58 Z" fill="#007e97" fill-rule="nonzero" group-id="1,2,5" node-id="471" stroke="none" target-height="4.279999" target-width="8.360016" target-x="365.08" target-y="344.58"></path><path d="M 382.78 344.58 L 374.42 344.58 L 378.69 348.86 L 382.78 344.58 Z" fill="#007e97" fill-rule="nonzero" group-id="1,2,5" node-id="473" stroke="none" target-height="4.279999" target-width="8.359985" target-x="374.42" target-y="344.58"></path><path d="M 392.12 344.58 L 383.76 344.58 L 388.03 348.86 L 392.12 344.58 Z" fill="#007e97" fill-rule="nonzero" group-id="1,2,5" node-id="475" stroke="none" target-height="4.279999" target-width="8.359985" target-x="383.76" target-y="344.58"></path><path d="M 401.47 344.58 L 393.10 344.58 L 397.38 348.86 L 401.47 344.58 Z" fill="#007e97" fill-rule="nonzero" group-id="1,2,5" node-id="477" stroke="none" target-height="4.279999" target-width="8.369995" target-x="393.1" target-y="344.58"></path><path d="M 410.81 344.58 L 402.45 344.58 L 406.72 348.86 L 410.81 344.58 Z" fill="#007e97" fill-rule="nonzero" group-id="1,2,5" node-id="479" stroke="none" target-height="4.279999" target-width="8.359985" target-x="402.45" target-y="344.58"></path><path d="M 345.41 344.58 L 337.05 344.58 L 341.32 348.86 L 345.41 344.58 Z" fill="#007e97" fill-rule="nonzero" group-id="1,2,5" node-id="481" stroke="none" target-height="4.279999" target-width="8.360016" target-x="337.05" target-y="344.58"></path><path d="M 429.50 344.58 L 421.13 344.58 L 425.40 348.86 L 429.50 344.58 Z" fill="#007e97" fill-rule="nonzero" group-id="1,2,5" node-id="483" stroke="none" target-height="4.279999" target-width="8.369995" target-x="421.13" target-y="344.58"></path><path d="M 420.15 344.58 L 411.79 344.58 L 416.06 348.86 L 420.15 344.58 Z" fill="#007e97" fill-rule="nonzero" group-id="1,2,5" node-id="485" stroke="none" target-height="4.279999" target-width="8.359985" target-x="411.79" target-y="344.58"></path><path d="M 359.43 350.17 L 351.06 350.17 L 355.34 354.45 L 359.43 350.17 Z" fill="#007e97" fill-rule="nonzero" group-id="1,2,5" node-id="487" stroke="none" target-height="4.279999" target-width="8.369995" target-x="351.06" target-y="350.17"></path><path d="M 368.77 350.17 L 360.40 350.17 L 364.68 354.45 L 368.77 350.17 Z" fill="#007e97" fill-rule="nonzero" group-id="1,2,5" node-id="489" stroke="none" target-height="4.279999" target-width="8.369995" target-x="360.4" target-y="350.17"></path><path d="M 378.11 350.17 L 369.75 350.17 L 374.02 354.45 L 378.11 350.17 Z" fill="#007e97" fill-rule="nonzero" group-id="1,2,5" node-id="491" stroke="none" target-height="4.279999" target-width="8.359985" target-x="369.75" target-y="350.17"></path><path d="M 387.45 350.17 L 379.09 350.17 L 383.36 354.45 L 387.45 350.17 Z" fill="#007e97" fill-rule="nonzero" group-id="1,2,5" node-id="493" stroke="none" target-height="4.279999" target-width="8.360016" target-x="379.09" target-y="350.17"></path><path d="M 396.79 350.17 L 388.43 350.17 L 392.70 354.45 L 396.79 350.17 Z" fill="#007e97" fill-rule="nonzero" group-id="1,2,5" node-id="495" stroke="none" target-height="4.279999" target-width="8.360016" target-x="388.43" target-y="350.17"></path><path d="M 406.14 350.17 L 397.77 350.17 L 402.05 354.45 L 406.14 350.17 Z" fill="#007e97" fill-rule="nonzero" group-id="1,2,5" node-id="497" stroke="none" target-height="4.279999" target-width="8.370026" target-x="397.77" target-y="350.17"></path><path d="M 415.48 350.17 L 407.12 350.17 L 411.39 354.45 L 415.48 350.17 Z" fill="#007e97" fill-rule="nonzero" group-id="1,2,5" node-id="499" stroke="none" target-height="4.279999" target-width="8.360016" target-x="407.12" target-y="350.17"></path><path d="M 350.08 350.17 L 341.72 350.17 L 345.99 354.45 L 350.08 350.17 Z" fill="#007e97" fill-rule="nonzero" group-id="1,2,5" node-id="501" stroke="none" target-height="4.279999" target-width="8.359985" target-x="341.72" target-y="350.17"></path><path d="M 443.01 350.17 L 434.65 350.17 L 438.93 354.45 L 443.01 350.17 Z" fill="#007e97" fill-rule="nonzero" group-id="1,2,5" node-id="503" stroke="none" target-height="4.279999" target-width="8.360016" target-x="434.65" target-y="350.17"></path><path d="M 434.16 350.17 L 425.80 350.17 L 430.07 354.45 L 434.16 350.17 Z" fill="#007e97" fill-rule="nonzero" group-id="1,2,5" node-id="505" stroke="none" target-height="4.279999" target-width="8.360016" target-x="425.8" target-y="350.17"></path><path d="M 424.82 350.17 L 416.46 350.17 L 420.73 354.45 L 424.82 350.17 Z" fill="#007e97" fill-rule="nonzero" group-id="1,2,5" node-id="507" stroke="none" target-height="4.279999" target-width="8.360016" target-x="416.46" target-y="350.17"></path></g><path d="M 339.00 359.07 C 339.00 359.07 281.27 337.28 311.40 271.68 C 311.42 271.68 359.40 323.15 339.00 359.07 Z" fill="#007e97" fill-rule="nonzero" group-id="1,2" node-id="510" stroke="none" target-height="87.390015" target-width="78.130005" target-x="281.27" target-y="271.68"></path><path d="M 440.00 359.07 C 440.00 359.07 497.72 337.28 467.59 271.68 C 467.57 271.68 419.59 323.15 440.00 359.07 Z" fill="#007e97" fill-rule="nonzero" group-id="1,2" node-id="512" stroke="none" target-height="87.390015" target-width="78.130005" target-x="419.59" target-y="271.68"></path><path d="M 390.94 26.05 L 192.34 185.48 L 270.34 440.18 L 517.16 438.18 L 591.67 182.23 Z M 389.47 340.86 C 385.88 340.87 382.29 340.62 378.74 340.12 C 340.69 334.74 312.41 302.17 312.41 263.75 C 312.41 225.33 340.69 192.76 378.74 187.38 C 382.29 186.88 385.88 186.63 389.47 186.64 C 432.06 186.64 466.58 221.16 466.58 263.75 C 466.58 306.34 432.06 340.86 389.47 340.86 Z" fill="#a3844f" fill-rule="nonzero" group-id="1,2" node-id="514" stroke="none" target-height="414.13" target-width="399.33" target-x="192.34" target-y="26.05"></path><path d="M 159.22 233.10 C 147.35 233.09 136.98 225.05 134.02 213.55 C 131.05 202.06 136.23 190.01 146.61 184.25 C 161.67 174.00 293.84 69.81 374.75 5.64 C 384.22 -1.88 397.62 -1.88 407.09 5.64 L 635.93 186.64 C 647.21 195.56 649.12 211.94 640.20 223.23 C 631.27 234.51 614.89 236.41 603.61 227.49 L 391.00 59.27 C 177.61 228.38 172.90 229.94 167.46 231.75 C 164.81 232.65 162.02 233.10 159.22 233.10 Z M 150.94 182.35 L 150.94 182.35 Z M 150.99 182.35 L 150.99 182.35 Z" fill="#594218" fill-rule="nonzero" group-id="1,2" node-id="516" stroke="none" target-height="238.29486" target-width="518.07166" target-x="131.0483" target-y="-1.8799509"></path><path d="M 545.80 462.38 L 238.25 462.38 C 226.01 462.34 216.09 452.42 216.05 440.18 L 216.05 440.18 C 216.09 427.94 226.01 418.02 238.25 417.98 L 545.80 417.98 C 558.04 418.02 567.96 427.94 568.00 440.18 L 568.00 440.18 C 567.96 452.42 558.04 462.34 545.80 462.38 Z" fill="#594218" fill-rule="nonzero" group-id="1,2" node-id="518" stroke="none" target-height="44.399994" target-width="351.95" target-x="216.05" target-y="417.98"></path><path d="M 487.09 262.44 C 487.09 316.72 443.08 360.73 388.80 360.73 C 334.52 360.73 290.51 316.72 290.51 262.44 C 290.51 208.16 334.52 164.15 388.80 164.15 C 443.08 164.15 487.09 208.16 487.09 262.44 Z" fill="none" group-id="1,2,6" node-id="522" stroke="#594218" stroke-linecap="butt" stroke-opacity="0.4" stroke-width="34.64" target-height="196.58002" target-width="196.57999" target-x="290.51" target-y="164.15"></path></g></g></svg>